<?xml version="1.0" encoding="utf-8"?>
<!-- Generator: Adobe Illustrator 22.0.0, SVG Export Plug-In . SVG Version: 6.00 Build 0)  -->
<svg version="1.1" id="Layer_1" xmlns="http://www.w3.org/2000/svg" xmlns:xlink="http://www.w3.org/1999/xlink" x="0px" y="0px"
	 viewBox="0 0 512 513" style="enable-background:new 0 0 512 513;" xml:space="preserve">
<style type="text/css">
	.st0{fill:#F3F2F1;}
	.st1{fill:none;}
	.st2{fill:#DD0A19;}
	.st3{fill:#3B434F;}
	.st4{fill:#892727;}
	.st5{fill:#FADABA;}
	.st6{opacity:5.882400e-02;fill:#3B434F;enable-background:new    ;}
	.st7{fill:#556070;}
</style>
<g>
	<circle class="st0" cx="256" cy="257" r="256"/>
	<g>
		<path class="st1" d="M86.6,447.8c16.9-34.8,50.7-58,88-58h38.9v3.7h7.4v-21.6c0,0,33,14.2,66.4,1.6l0.9,16.3h49.2
			c37.3,0,71.2,23.3,88.1,58.1C478.6,401,512,332.4,512,256C512,114.6,397.4,0,256,0S0.1,114.6,0.1,256
			C0.1,332.3,33.5,400.9,86.6,447.8z"/>
		<path class="st2" d="M334.6,395.9h-47.9v-6.2h1.5l-0.9-16.3c-33.4,12.6-66.4-1.6-66.4-1.6v21.6h-7.4v2.5h-35.8
			c-36.4,0-69.4,22.8-85.5,56.7c44.4,37,101.5,59.3,163.8,59.3c62.4,0,119.6-22.3,164-59.4C404,418.6,371,395.9,334.6,395.9z"/>
		<path class="st3" d="M337.4,389.7h-49.2h-1.5v6.2h47.9c36.3,0,69.3,22.7,85.4,56.6c1.8-1.5,3.7-3.1,5.5-4.7
			C408.6,413,374.7,389.7,337.4,389.7z"/>
		<path class="st3" d="M177.7,395.9h35.8v-2.5v-3.7h-38.9c-37.3,0-71.1,23.2-88,58c1.9,1.7,3.8,3.3,5.7,4.9
			C108.3,418.7,141.3,395.9,177.7,395.9z"/>
	</g>
	<path id="neck_copy_5_1_" class="st3" d="M225.9,369.4v32.4c0,17.1,13.9,31,31,31s31-13.9,31-31V370c1.7-0.5,3.3-1.1,5-1.7v33.4
		c0,17.2-11.8,32.5-28.6,36.1c-23.7,5-44.6-12.9-44.6-35.8v-34.9C221.8,368,223.8,368.7,225.9,369.4z"/>
	<path id="Rounded_Rectangle_14_1_" class="st3" d="M223.4,435.8v51.5c0,1.6-1,3-2.5,3.5c-2.6,0.8-5-1-5-3.2v-51.9
		c0-2.3,2.4-4,5-3.2C222.5,432.8,223.4,434.2,223.4,435.8z"/>
	<path id="Rounded_Rectangle_15_1_" class="st3" d="M296.6,448.6v32.2c0,1.6-1,3.2-2.5,3.7c-2.6,0.8-4.9-1.1-4.9-3.5v-32.4
		c0-2.4,2.3-4.3,4.9-3.5C295.7,445.4,296.6,447,296.6,448.6z"/>
	<path id="Rounded_Rectangle_16_1_" class="st3" d="M220.3,487.2c1,0,1.9,0.8,1.9,1.9v13.3c0,1-0.8,1.9-1.9,1.9s-1.9-0.8-1.9-1.9
		V489C218.5,488,219.3,487.2,220.3,487.2z"/>
	<path id="Rounded_Rectangle_16_copy_1_" class="st3" d="M292.3,480.8c1,0,1.9,0.8,1.9,1.9V496c0,1-0.8,1.9-1.9,1.9
		c-1,0-1.9-0.8-1.9-1.9v-13.3C290.4,481.6,291.3,480.8,292.3,480.8z"/>
	<path id="Shape_1_copy_1_" class="st4" d="M199.9,356.3l-33.5,7.7c0,0-41.1,9.3-13.7,37c27.3,27.7,97.6,32.6,97.6,32.6
		s-18.6-8.8-26.5-21.2l-2.6-44.5L199.9,356.3z"/>
	<path id="Shape_1_copy_2_1_" class="st3" d="M251.3,436.2c-2.1,2.6-60.6,0.8-101.1-34.4c-29.3-25.5,14.8-40.2,14.8-40.2l32.3-7.4
		l28.1,14.3l2.1,42.9C239.3,429.8,254.6,432,251.3,436.2z M222.2,413.4l-3.2-45l-16.9-9.5l-32.3,7.9c0,0-39.1,8-14.3,31.2
		c26.8,25.1,76.3,31.8,81.5,31.2C242.4,428.8,234,432,222.2,413.4z"/>
	<path id="Shape_1_copy_4_1_" class="st4" d="M313.2,357.6l33.5,7.7c0,0,41.1,9.3,13.8,37.1c-27.4,27.7-97.6,32.6-97.6,32.6
		s18.6-8.8,26.5-21.2l2.6-44.6L313.2,357.6z"/>
	<path id="Shape_1_copy_6_1_" class="st3" d="M261.8,437.2c2.1,2.6,60.6,0.8,101.2-34.5c29.4-25.6-14.8-40.4-14.8-40.4l-32.3-7.4
		l-28.1,14.3l-2.1,43C273.8,430.8,258.4,432.9,261.8,437.2z M290.9,414.3l3.2-45.1l16.9-9.6l32.3,8c0,0,39.1,8,14.3,31.3
		c-26.8,25.1-76.4,31.9-81.6,31.3C270.7,429.7,279.1,432.9,290.9,414.3z"/>
	<path id="_x32__copy_5_2_" class="st5" d="M258.5,34.6c65.9,0,117.8,61.5,116.1,135.5l-1.8,78.6c-1.6,69.7-52.8,124.7-114.3,124.7
		s-112.8-55.1-114.3-124.7l-1.8-78.6C140.7,96.2,192.7,34.6,258.5,34.6z"/>
	<path id="_x32__line_2_" class="st3" d="M380.2,170.3l-1.9,81.8c-1.7,72.5-55.3,129.8-119.8,129.8s-118.1-57.3-119.8-129.8
		l-1.9-81.8c-1.8-76.9,52.7-141,121.7-141S382,93.3,380.2,170.3z M258.3,37.8c-65,0-116.2,61.1-114.6,134.4l1.8,78
		c1.6,69.1,52,123.7,112.8,123.7s111.2-54.6,112.8-123.7l1.8-78C374.5,98.8,323.2,37.8,258.3,37.8z"/>
	<path id="Shape_1_2_" class="st3" d="M369.2,342.9c-1.6,7.4-22.1,74.6-18.4,45.5c-11.3,25-38.2,75.4-38.2,75.4
		c-7.3,7.5-36.8,24.9-37,24.9v-7.3l-21.5,8.8l-9.8-8.8l-1.1,8.8c-2.9-4.3-52.2-39.1-52.2-39.1s-10.8-37.2-18.7-46.4
		c-0.3-0.3,0.3-6.9,0-7.3c-8-10.1-7.9-28.2-7.9-28.2l-2.2,17.6c-19.1-37.2-19-115.6-19-115.6l-3.2-97.5h3.5l11.7,67.6l16,74.1
		c21.8-41.9,71.3-43.4,71.3-43.4c22.2,15.8,32.6,0.8,37.9-0.4c0.6-0.1,8.6,4,18.6,5.1c7.5,0.8,35.9,5.5,42.2,40.7
		c18.3-8.9,31.9-143.3,31.9-142.5h3.6C376.6,174.3,370.7,335.5,369.2,342.9z M318,318.8c-1.6-18.7-12.9-17.1-12.9-17.1
		c-16.6-0.1-16,2.9-31-0.4c-6.6-1-13-3.4-13.1-3.4c-2.5,0-7.1,0-9.6,0l-4.1,1.6c-2.4,3.3-11.3,3.1-15.9,2.9
		c-6.7-0.2-12.5-0.8-22.8-0.7c0,0-8.6-0.4-10.2,18.1c0,0,2.6,16.1,17.9,24.1l16.7,7.5c0,0,11.8,3.9,11.4-11.8c0,0-0.5-4.9,7.3-6.9
		h4.6h6.6h5.7c7.8,2,6.5,7.6,6.5,7.6c-0.3,15.9,13.1,9.6,13.1,9.6l19.1-10.3C322.5,331.6,318,318.8,318,318.8z"/>
	<path id="Shape_11_copy_2_" class="st5" d="M136.7,182.2c0,0-1.3-1-3.7-1.8c-1.2-0.4-2.7-0.7-4.4-0.8c-0.4,0-0.9,0-1.3,0
		c-0.5,0-0.9,0-1.4,0.1c-0.9,0.1-1.9,0.3-2.9,0.6c-3.9,1.1-7.9,3.9-10.2,9.5c-1.2,2.8-2,6.4-2.2,10.8c-0.1,1.1-0.1,2.3,0,3.5
		c0,1.2,0.1,2.5,0.2,3.8c0.2,2.7,0.6,5.6,1.1,8.8c0,0-0.5,9.6,2.9,20.7c3.2,10.8,11,24.1,25.4,27.9
		C138.5,237.9,138.4,209.9,136.7,182.2L136.7,182.2z"/>
	<path id="Shape_3_2_" class="st3" d="M138.3,183.3c0,0-25-7.8-24.2,18c0,0,3.7,37.3,5.3,40.8c0,0,9.8,21.7,26.1,22.7
		c15.9,0.9,0,0,0,0l0.2,7c0,0-28.5-3.7-34-36.5l-4.3-29.9c0,0-3.4-39.5,29.4-29.5c31.9,9.8,0,0,0,0L138.3,183.3"/>
	<path id="Shape_4_2_" class="st3" d="M130.1,235.2c0,0-1.4,1.1-2.6,1.1s-2.6-1.1-2.6-1.1l-2.6-26c0,0,3.6-12.8,18.7-6l0.4,7.4
		c0,0-13.3-4.7-13,1.2C128.6,217.3,130.1,235.2,130.1,235.2z"/>
	<path id="Shape_11_copy_x5F_1_2_" class="st5" d="M379.9,182.3c0,0,1.3-1,3.7-1.8c1.2-0.4,2.7-0.7,4.5-0.8c0.4,0,0.9,0,1.3,0
		c0.5,0,0.9,0,1.4,0.1c0.9,0.1,1.9,0.3,2.9,0.6c3.9,1.1,7.9,3.9,10.3,9.5c1.2,2.8,2,6.4,2.2,10.8c0.1,1.1,0.1,2.3,0,3.5
		c0,1.2-0.1,2.5-0.2,3.8c-0.2,2.7-0.6,5.6-1.1,8.8c0,0,0.5,9.6-3,20.7c-3.3,10.8-11.1,24.1-25.5,27.9
		C378.1,237.9,378.1,209.9,379.9,182.3L379.9,182.3z"/>
	<path id="Shape_3_x5F_1_2_" class="st3" d="M378.2,183.4c0,0,25.1-7.8,24.3,18c0,0-3.7,37.3-5.4,40.7c0,0-9.9,21.7-26.2,22.7
		c-15.9,0.9,0,0,0,0l-0.2,7c0,0,28.6-3.7,34.2-36.5l4.4-29.8c0,0,3.4-39.5-29.5-29.4c-32,9.8,0,0,0,0L378.2,183.4"/>
	<path id="Shape_4_x5F_1_2_" class="st3" d="M386.5,235.2c0,0,1.4,1.1,2.6,1.1s2.6-1.1,2.6-1.1l2.6-26c0,0-3.6-12.8-18.8-6l-0.4,7.4
		c0,0,13.3-4.7,13.1,1.2C388,217.4,386.5,235.2,386.5,235.2z"/>
	<path id="new_vector_shape_done_2_" class="st3" d="M264.4,229.7c0.6,0,1.2,0,1.9,0c3.8,5.2,5.4,13.2,7.4,20.1
		c0.6,2.1,0,5.9-0.5,7.4c-2,5.6-8.3,5.5-13.5,7.9c-1.4,0.7-2.4,1.8-4.2,2.1c-1.2-1-2.6-1.2-3.2-2.9c-1.4-2,0.4-3.2,1.9-4
		c2.6-1.4,11.9-4.1,12.8-6.7c1.2-1.4-0.8-4.1-1.2-5.5c-1-3.7-1.5-6.7-2.9-10.1c-0.9-2.2-2.6-4.5-1.6-7.1
		C262.1,230.7,263.8,230.3,264.4,229.7z"/>
	<path id="_x31__copy_4_1_" class="st6" d="M270.6,209.8v0.7c0.1,0-0.1-0.1-0.3-0.1s-0.4,0.1-1,0.1v-0.7 M147.6,113.5
		c-0.3-12.3,17.7-40.5,22.7-39.9c4.5,0.6,16.5-13.2,20.1-15.9c13.2-9.9,39.6-24.9,51.1-24.2c1.4,0.1,48.9,5.9,50.2,5.8
		c11.4-0.6,19.4,15.6,34.8,21c4.2,1.5,14.8,17.6,18.4,20.3c5.6,4.1,11.8,21.1,24.6,32.8c-32.6-24.3-55.7-26.3-71-23.3
		c-17.3,3.3-26.5,13.4-48,12.4c-17.8-0.8-22.9-8.2-38-10.8C198.2,89.4,177,91.5,147.6,113.5z"/>
	<path id="_x32__1_" class="st3" d="M209.9,311.3l2.8-3.1c13.2,7.6,29,12,45.9,12c17.1,0,33-4.5,46.3-12.2l2.4,3.3
		c-14.5,8.4-20.9,15.8-48.3,15.8C233.1,327.1,224.3,319.7,209.9,311.3z"/>
	<g>
		<path id="oko_1_" class="st3" d="M198.5,193.4c5.8,0,10.6,4.7,10.6,10.6c0,5.8-4.7,10.6-10.6,10.6c-5.8,0-10.6-4.7-10.6-10.6
			C187.9,198.2,192.6,193.4,198.5,193.4z"/>
		<path id="oko_1_1_" class="st3" d="M322.3,193.4c5.8,0,10.6,4.7,10.6,10.6c0,5.8-4.7,10.6-10.6,10.6s-10.6-4.7-10.6-10.6
			C311.8,198.2,316.5,193.4,322.3,193.4z"/>
		<path id="R_copy_1_" class="st3" d="M293.8,179c0,0,31.7-18.1,54.3,1.8l6,0.9c0,0-7.7-27.9-63.5-9.8l1.6,5.2 M293.4,177.2
			c0,0,32.2-18.5,53.5,4.9l11-0.3c0,0-13.7-29.8-69.7-11l5.3,7.7"/>
		<path id="R_copy_3_1_" class="st3" d="M225.7,179.1c0,0-31.6-18-54.2,1.8l-6,0.9c0,0,7.6-27.7,63.3-9.7l-1.5,5.2 M226.1,177.3
			c0,0-32.1-18.4-53.3,4.8l-10.9-0.3c0,0,13.6-29.6,69.5-10.9l-5.3,7.6"/>
	</g>
	<g>
		<g>
			<g>
				<path class="st7" d="M211.2,380.2c-0.2,0,1.8,6,2.4,13.5c0.2,3.1-0.8,7-0.5,11.4c0.3,4,2.9,7.9,3.6,12.4c0.6,4.1-3.7,9-3.1,13.4
					c0.7,4.7,4.6,9,5.4,13.3c1.5,7.8,1.1,12.8,1.3,12.7s-2.4-4.1-4.6-12.3c-1.1-4.1,1.3-9.5,0.6-14.7c-0.6-4.5-5.3-8.8-4.7-12.9
					c0.6-4.7,1.7-8.4,1.3-12.2c-0.5-4.5-1.3-8-1.8-11C209.7,386.1,211.4,380.2,211.2,380.2z"/>
			</g>
			<g>
				<path class="st7" d="M221.1,358.8c-0.2,0-2.6,2.1-2.4,10.2c0.1,3.7,4.5,8,4.8,12.9c0.2,4-1.1,8.6,0.2,13.1
					c1.2,4,3.7,7.9,4.2,12.4c0.4,4.2,2.2,8.4,2.3,12.9c0.1,4.2-2.9,8.8-2.3,13.1c1,6.8-0.5,13.9,0.5,19.8c2,11.3,4.3,17.2,4.6,17
					s4-6.3,2.3-18.5c-0.8-5.7-6.5-11.8-7.4-19.3c-0.5-4.4-3.5-8.7-3.4-12.8c0.1-4.5,2.6-8.8,2.2-12.8c-0.5-4.5-4.1-8.3-4.7-12.2
					c-0.7-4.6,2.1-9.3,1.7-13.1c-0.5-5-0.1-9.3-0.3-12.9C223,360.3,221.3,358.8,221.1,358.8z"/>
			</g>
			<g>
				<path class="st7" d="M246.2,368.2c-0.2,0-1.7,4.7-0.6,12.1c0.4,3.2,0.5,7,1,11.4c0.4,3.7,0.1,7.3-0.5,11.7
					c-0.5,4,2.2,8.3,2.8,12.5c0.6,3.9,2.5,7.7,3,11.9c0.6,4-0.1,8.1,0.7,12.2c1.2,6.4,10.2,11,11.4,16.4c2.3,10.5-0.9,19.4-0.6,19.2
					c0.2-0.2,0.1-7.6-1.9-19c-0.9-5.3-8.7-10.4-9.8-17.4c-0.7-4.1,3.6-8.4,4.5-12.4c1-4.4,1.1-8.9,0.5-12.6
					c-0.6-4.2-0.3-8.6-1.4-12.1c-1.2-4.2-1.4-7.9-1.9-11.5c-0.6-4.4-3.2-8-3.7-11C248.3,371.9,246.4,368.2,246.2,368.2z"/>
			</g>
			<g>
				<path class="st7" d="M232.1,354.7c-0.4,0-1.7,7.4-1.1,20.6c0.1,3.3,0.7,7.1,1.6,10.9c0.8,3.3,1.5,6.7,1.8,10.5
					c0.5,6.7-0.2,14,0.7,21.5c0.8,6.9,6.2,13.4,7.3,20.7c0.5,3.6-1.7,7.5-1.8,11.1c0,3.8,3.6,7.1,4.2,10.4
					c2.3,12.4,1.9,22.7,2.3,22.4c0.3-0.2-0.7-9.3-2.6-22.8c-0.5-3.4-5.2-6.2-6.1-10.1c-0.8-3.4,3-8,2.5-11.8
					c-0.5-3.6-0.6-6.7,0.3-10.2c1-3.8-1.3-7.5-1.7-10.9c-0.4-3.7,1.9-8.3,0.1-11.5c-1.9-3.5-8.3-5.6-8.6-8.9
					c-0.4-3.8,2.2-7.8,2.8-11.1c0.8-3.9,2.4-7.4,2.1-10.6C234.8,361,232.4,354.7,232.1,354.7z"/>
			</g>
			<g>
				<path class="st7" d="M311,375.5c0.2,0,0.9,6.6,0.8,15c-0.1,4.4,1.8,9.6,1.4,14.7c-0.3,4-5.9,7.5-7,11.9c-1,4-0.7,8.6-1.4,13
					s0.2,8.9-0.1,12.6c-0.7,7.4-0.4,11.3-0.6,11.2c-0.2-0.1-0.9-3.7,0.8-11.6c0.8-3.6,2.3-7.6,2.9-12.4c0.6-4.5,2-9.1,1.1-13.1
					c-1.1-4.7-0.9-8.5-0.6-12.3c0.5-5.3-0.8-10.3,0-14.4C309.9,381.6,310.8,375.5,311,375.5z"/>
			</g>
			<g>
				<path class="st7" d="M286.4,367.3c0.2,0-0.7,1.7-1.9,9.6c-0.5,3.4,1.3,7.6,1,12.3c-0.2,4-4.6,8.2-4.4,12.8
					c0.2,4.1,3.1,8.5,2.6,13c-0.4,4.1-2.8,8.4-2.9,12.8c-0.1,4.2,3.8,9,3.2,13.4c-1,6.8-5.6,13-6.7,18.9c-2,11.3-2.1,16.4-2.4,16.2
					c-0.3-0.2-5.6-5.4-4-17.6c0.8-5.7,12.1-11.1,13-18.6c0.5-4.4-4.7-9.2-4.4-13.3c0.3-4.5,6-8.2,6.4-12.2c0.5-4.5-0.8-9.2-1-13.2
					c-0.3-4.7-4.7-9.2-4.4-13c0.4-4.7,6.1-8.2,6.4-11.5C287.8,368.9,286.1,367.4,286.4,367.3z"/>
			</g>
			<g>
				<path class="st7" d="M302.1,361.2c0.3,0,2.4,8.7,0.9,23.3c-0.4,3.7-2.9,7.6-3.3,11.9c-0.4,3.8-1.2,7.8-1.8,12
					c-0.6,3.9,0.2,8.4-1.5,12.3c-1.6,3.7-4.4,7.1-5.1,11.2c-1.2,6.4,4.6,14.1,3.4,19.5c-2.3,10.5-6.6,13.2-6.9,13
					c-0.2-0.2-2.9-3.7-0.9-15.1c0.9-5.3,1.5-11.6,2.7-18.6c0.7-4.1,0.7-8.6,2.2-12.2c1.7-4,6.8-6.8,7.4-10.5
					c0.6-4.2-2.7-8.6-2.5-12.3c0.3-4.4,1-8.4,1.5-12C300.5,368.4,301.8,361.2,302.1,361.2z"/>
			</g>
			<g>
				<path class="st7" d="M273.6,354.7c0.4,0-3.1,7-3.7,20.3c-0.1,3.3,1.4,7.4,2.3,11.3c0.8,3.5,3,6.8,2.7,10.5
					c-0.3,3.4-3.9,5.9-5.5,9.5c-1.5,3.4-1.1,7.8-1.5,11.4c-0.8,6.9-2.6,13.8-3.7,21.1c-0.5,3.6-1.3,7.3-1.2,10.9
					c0.1,3.9,0,7.4-0.6,10.8c-2.3,12.4-4.3,23.6-4.6,23.3c-0.2-0.1-0.2-6.6,1.3-13.4c0.7-3,6-5.8,6.6-10c0.5-3.4,1-7.4,0.9-11.5
					c0-3.5-4.6-7.5-4.1-11.4c0.9-7.5,1.9-14.4,2.6-21c0.9-7.7,3.6-14.5,4.3-20.8c0.4-3.8,0.7-7-0.2-10.4c-1-3.9-1.1-7.8-0.9-11
					C269.7,360.7,273.3,354.7,273.6,354.7z"/>
			</g>
		</g>
	</g>
	<g>
		<g>
			<g>
				<polygon class="st7" points="184.8,367.9 184,383.9 185,401 186.4,418.2 193.5,443.3 190.3,417 188.8,400.2 186.9,383.5 				"/>
			</g>
			<g>
				<polygon class="st7" points="195.2,342.6 193.8,362.7 197.2,382 199.5,401.2 203.2,420.3 203.8,440 207.2,457.9 201.6,439.7 
					202.7,419.4 201.7,400.2 203.2,380.9 194.8,362.5 				"/>
			</g>
			<g>
				<polygon class="st7" points="205.7,342.5 210.5,357.9 211.1,375 206.2,392.5 209,409.6 216.1,425.9 217,447.7 220.6,469.6 
					214,447.6 218,424.7 215.7,407.9 208.5,391.7 204.6,375 208.4,357.7 				"/>
			</g>
		</g>
	</g>
	<g>
		<g>
			<g>
				<polygon class="st7" points="337.1,359.6 338.3,375.3 336.3,392.4 330.6,408.9 326.8,437.3 333.6,408.6 334.5,391.7 
					332.5,374.6 				"/>
			</g>
			<g>
				<polygon class="st7" points="326.6,334.1 330,354.2 323,373.2 321.6,392.5 316.7,411.4 320,431.7 314.1,450.1 315.3,430.5 
					320.2,410.9 321.5,391.8 326.5,373 328.7,354 				"/>
			</g>
			<g>
				<polygon class="st7" points="316,332.2 320.5,349.6 319,366.9 315.6,383.9 312.4,400.9 310.2,418 307.3,439.5 299.8,463.4 
					300.3,437.9 309.3,416.7 305.2,399.2 306.1,382.3 315.2,366.2 317.8,349.5 				"/>
			</g>
		</g>
	</g>
</g>
</svg>
